<?xml version="1.0" encoding="utf-8"?>
<!-- Generator: Adobe Illustrator 25.4.1, SVG Export Plug-In . SVG Version: 6.00 Build 0)  -->
<svg version="1.1" id="Layer_1" xmlns="http://www.w3.org/2000/svg" xmlns:xlink="http://www.w3.org/1999/xlink" x="0px" y="0px"
	 viewBox="0 0 72 48" style="enable-background:new 0 0 72 48;" xml:space="preserve">
<style type="text/css">
	.st0{fill:none;stroke:#FFFFFF;stroke-width:10;}
	.st1{fill:none;stroke:#FFFFFF;stroke-width:8;}
	.st2{fill:none;}
	.st3{fill:#FFFFFF;}
	.st4{fill:none;stroke:#D54040;stroke-width:16;}
	.st5{fill:none;stroke:#F4EB28;stroke-width:10;}
</style>
<line id="Line_4" class="st0" x1="24.9" y1="6.5" x2="24.9" y2="42.5"/>
<line id="Line_3" class="st0" x1="8.9" y1="6.5" x2="8.9" y2="42.5"/>
<path id="Path_1" class="st1" d="M11.9,25h11"/>
<g id="Polygon_1" transform="translate(75.5 5.491)">
	<path class="st2" d="M-18.5-0.5l11,19.2l-11,19.3h-22.1l-11-19.2l11-19.2C-40.5-0.5-18.5-0.5-18.5-0.5z"/>
	<path class="st3" d="M-40,0.5l-10.5,18.2L-40,37h20.9l10.5-18.3L-19,0.5H-40 M-40.5-0.5h22.1l11,19.2l-11,19.3h-22.1l-11-19.2
		L-40.5-0.5z"/>
</g>
<line id="Line_1" class="st4" x1="45.9" y1="27" x2="45.9" y2="42.5"/>
<line id="Line_2" class="st5" x1="50.4" y1="14.3" x2="40.4" y2="23.3"/>
</svg>
